<svg id="Layer_1" data-name="Layer 1" xmlns="http://www.w3.org/2000/svg" viewBox="0 0 443.91 282.88"><title>swilogo</title><polygon points="47.44 53.89 247.44 53.89 247.44 204.53 47.44 264.48 47.44 53.89" fill="#ed2024"/><polygon points="105.66 247.01 141.53 247.01 141.53 282.88 172.28 282.88 172.28 247.01 208.16 247.01 208.16 216.26 105.66 247.01" fill="#ed2024"/><polygon points="172.33 216.27 172.33 180.39 141.58 180.39 141.58 216.27 105.7 216.27 105.7 247.02 208.21 216.27 172.33 216.27" fill="#fff"/><polygon points="0 61.59 47.44 53.89 47.44 264.48 16.59 264.48 0 61.59" fill="#a21d21"/><path d="M208.81,203a4.73,4.73,0,0,1-1.2,1.37,2.67,2.67,0,0,1-1.63.46,4,4,0,0,1-1.89-.55c-.67-.37-1.44-.79-2.29-1.24a19.11,19.11,0,0,0-2.93-1.25,11.63,11.63,0,0,0-3.74-.55c-2.43,0-4.23.51-5.41,1.55a5.24,5.24,0,0,0-1.78,4.18,3.8,3.8,0,0,0,1.07,2.79,9.26,9.26,0,0,0,2.81,1.92,31.07,31.07,0,0,0,4,1.47q2.23.66,4.56,1.49a40.59,40.59,0,0,1,4.57,1.93,15.23,15.23,0,0,1,4,2.83,13.12,13.12,0,0,1,2.81,4.19,14.91,14.91,0,0,1,1.07,5.94,19.4,19.4,0,0,1-1.34,7.23,16.86,16.86,0,0,1-3.88,5.87,18,18,0,0,1-6.27,3.94,23.58,23.58,0,0,1-8.47,1.43,26.83,26.83,0,0,1-5.29-.54,30.67,30.67,0,0,1-5.22-1.51,30.17,30.17,0,0,1-4.74-2.31,20.43,20.43,0,0,1-3.87-3l3.83-6a3.08,3.08,0,0,1,1.18-1.11,3.37,3.37,0,0,1,1.65-.42,4.39,4.39,0,0,1,2.31.72c.78.49,1.66,1,2.64,1.61A21.73,21.73,0,0,0,188.7,237a12.82,12.82,0,0,0,4.51.72,8.54,8.54,0,0,0,5.47-1.55q1.95-1.54,1.95-4.91a4.64,4.64,0,0,0-1.07-3.17,8.24,8.24,0,0,0-2.81-2,25.62,25.62,0,0,0-4-1.41c-1.47-.41-3-.86-4.55-1.36a33.57,33.57,0,0,1-4.55-1.84,14.4,14.4,0,0,1-3.95-2.86,13.44,13.44,0,0,1-2.81-4.44,17.49,17.49,0,0,1-1.07-6.56,15.51,15.51,0,0,1,1.26-6.11,15.71,15.71,0,0,1,3.71-5.32,18.29,18.29,0,0,1,6-3.73,22.15,22.15,0,0,1,8.14-1.39,30.28,30.28,0,0,1,5,.4,26.59,26.59,0,0,1,4.61,1.18,25.69,25.69,0,0,1,4.07,1.88A19.13,19.13,0,0,1,212,197Z" transform="translate(-118.72 -88.21)" fill="#fff"/><path d="M214.63,207.75h9.48a4,4,0,0,1,2.18.57,2.3,2.3,0,0,1,1.11,1.49l4,17.78c.31,1.35.59,2.67.84,3.94s.49,2.54.69,3.79c.36-1.25.73-2.51,1.13-3.77s.78-2.58,1.17-4l5-17.82a2.57,2.57,0,0,1,1.1-1.47,3.61,3.61,0,0,1,2-.59h5.28a3.88,3.88,0,0,1,2.16.59,2.58,2.58,0,0,1,1.13,1.47l4.74,17.82c.35,1.35.72,2.67,1.09,3.94s.72,2.56,1.05,3.86c.2-1.27.45-2.54.74-3.8s.61-2.6.94-4l4.21-17.78a2.27,2.27,0,0,1,1.09-1.49,3.71,3.71,0,0,1,2-.57h9L264.48,247.4h-9.63a2,2,0,0,1-1.3-.46,3.07,3.07,0,0,1-.84-1.53l-5.66-19.77c-.26-.89-.5-1.77-.73-2.64s-.43-1.73-.61-2.6c-.18.9-.38,1.78-.59,2.66s-.47,1.77-.75,2.66l-5.73,19.69a2.46,2.46,0,0,1-2.53,2h-9.17Z" transform="translate(-118.72 -88.21)" fill="#fff"/><path d="M295,196.89a6.32,6.32,0,0,1-.57,2.66,7.06,7.06,0,0,1-1.57,2.18,7.71,7.71,0,0,1-2.31,1.49,7.18,7.18,0,0,1-2.81.55,6.68,6.68,0,0,1-2.72-.55,7.71,7.71,0,0,1-2.23-1.49,6.94,6.94,0,0,1-1.53-2.18,6.47,6.47,0,0,1-.56-2.66,6.72,6.72,0,0,1,.56-2.72,7.18,7.18,0,0,1,3.76-3.7,6.84,6.84,0,0,1,2.72-.54,7.36,7.36,0,0,1,2.81.54,7.22,7.22,0,0,1,3.88,3.7A6.57,6.57,0,0,1,295,196.89Zm-1.37,10.86V247.4H281.76V207.75Z" transform="translate(-118.72 -88.21)" fill="#fff"/><path d="M327.42,216.43a3.15,3.15,0,0,1-1,1,2.58,2.58,0,0,1-1.32.31,4.08,4.08,0,0,1-1.68-.37l-1.82-.78a21.22,21.22,0,0,0-2.2-.79,9.84,9.84,0,0,0-2.79-.36,6,6,0,0,0-3.46.86,2.78,2.78,0,0,0-1.2,2.39,2.42,2.42,0,0,0,.78,1.84,7.25,7.25,0,0,0,2.09,1.28,27.39,27.39,0,0,0,2.94,1q1.65.5,3.36,1.11a30.13,30.13,0,0,1,3.37,1.43,12.71,12.71,0,0,1,2.94,2,9.15,9.15,0,0,1,2.09,2.92,10,10,0,0,1,.78,4.13,13.6,13.6,0,0,1-1.07,5.43,11.44,11.44,0,0,1-3.19,4.28,15.23,15.23,0,0,1-5.24,2.8,23.71,23.71,0,0,1-7.17,1,22.21,22.21,0,0,1-4-.38,27.86,27.86,0,0,1-3.92-1,21,21,0,0,1-3.5-1.54,15.46,15.46,0,0,1-2.75-1.93l2.75-4.36a4,4,0,0,1,1.19-1.21,3.27,3.27,0,0,1,1.79-.44,3.83,3.83,0,0,1,1.86.46l1.77,1a16.43,16.43,0,0,0,2.24,1,9.57,9.57,0,0,0,3.23.46,8.17,8.17,0,0,0,2.33-.29,4.07,4.07,0,0,0,1.53-.78,2.93,2.93,0,0,0,.84-1.11,3.11,3.11,0,0,0,.27-1.26,2.59,2.59,0,0,0-.8-2,7.13,7.13,0,0,0-2.1-1.32,24.31,24.31,0,0,0-3-1c-1.11-.32-2.23-.69-3.38-1.09a26.45,26.45,0,0,1-3.38-1.48,11.62,11.62,0,0,1-3-2.18,10.14,10.14,0,0,1-2.1-3.23,13,13,0,0,1,.17-9.42,11.17,11.17,0,0,1,2.93-4,14.56,14.56,0,0,1,4.89-2.73,21,21,0,0,1,6.88-1,21.72,21.72,0,0,1,4.15.38,20.64,20.64,0,0,1,3.77,1.07,18.53,18.53,0,0,1,3.21,1.62,15.65,15.65,0,0,1,2.56,2Z" transform="translate(-118.72 -88.21)" fill="#fff"/><path d="M361.06,216.43a3.05,3.05,0,0,1-1,1,2.56,2.56,0,0,1-1.31.31,4.13,4.13,0,0,1-1.69-.37l-1.81-.78a22.1,22.1,0,0,0-2.2-.79,9.94,9.94,0,0,0-2.79-.36,5.91,5.91,0,0,0-3.46.86,2.77,2.77,0,0,0-1.21,2.39,2.43,2.43,0,0,0,.79,1.84,7.19,7.19,0,0,0,2.08,1.28,29.05,29.05,0,0,0,2.94,1c1.1.33,2.22.7,3.37,1.11a29.21,29.21,0,0,1,3.36,1.43,12.77,12.77,0,0,1,3,2,9.12,9.12,0,0,1,2.08,2.92,10,10,0,0,1,.79,4.13,13.6,13.6,0,0,1-1.07,5.43,11.46,11.46,0,0,1-3.2,4.28,15.14,15.14,0,0,1-5.24,2.8,23.6,23.6,0,0,1-7.16,1,22.23,22.23,0,0,1-4.06-.38,28.22,28.22,0,0,1-3.92-1,20.92,20.92,0,0,1-3.49-1.54,15.56,15.56,0,0,1-2.76-1.93l2.76-4.36a4,4,0,0,1,1.18-1.21,3.33,3.33,0,0,1,1.8-.44,3.79,3.79,0,0,1,1.85.46l1.78,1a15.9,15.9,0,0,0,2.24,1,9.57,9.57,0,0,0,3.23.46,8.22,8.22,0,0,0,2.33-.29,4.07,4.07,0,0,0,1.53-.78,3.15,3.15,0,0,0,.84-1.11,3.11,3.11,0,0,0,.27-1.26,2.59,2.59,0,0,0-.8-2,7.06,7.06,0,0,0-2.11-1.32,23.55,23.55,0,0,0-3-1c-1.11-.32-2.24-.69-3.38-1.09a26.58,26.58,0,0,1-3.39-1.48,11.4,11.4,0,0,1-3-2.18,9.82,9.82,0,0,1-2.1-3.23,11.79,11.79,0,0,1-.81-4.62,12.09,12.09,0,0,1,1-4.8,11.14,11.14,0,0,1,2.92-4,14.51,14.51,0,0,1,4.9-2.73,21,21,0,0,1,6.88-1,21.72,21.72,0,0,1,4.15.38,20.54,20.54,0,0,1,3.76,1.07,17.84,17.84,0,0,1,3.21,1.62,15.74,15.74,0,0,1,2.57,2Z" transform="translate(-118.72 -88.21)" fill="#fff"/><path d="M400.42,225c.47,1.05.93,2.12,1.36,3.22.43-1.13.89-2.22,1.38-3.28s1-2.08,1.49-3.08L419,193.64a4.62,4.62,0,0,1,.78-1.13,2.75,2.75,0,0,1,.9-.59,3.08,3.08,0,0,1,1.13-.19h11.33V247.4H421.7v-32c0-1.56.08-3.24.23-5.05L407.17,239a4.85,4.85,0,0,1-1.85,2,5.15,5.15,0,0,1-2.66.69H400.9a5.15,5.15,0,0,1-2.66-.69,4.79,4.79,0,0,1-1.85-2l-14.84-28.68c.1.89.18,1.78.23,2.66s.08,1.69.08,2.43v32h-11.4V191.73H381.8a3.08,3.08,0,0,1,1.13.19,2.75,2.75,0,0,1,.9.59,4.62,4.62,0,0,1,.78,1.13L399,221.93C399.46,222.9,400,223.9,400.42,225Z" transform="translate(-118.72 -88.21)" fill="#231f20"/><path d="M469.65,247.4a5.66,5.66,0,0,1-2.55-.46,3.51,3.51,0,0,1-1.43-1.91l-.84-2.18c-1,.84-1.95,1.58-2.87,2.21a18.49,18.49,0,0,1-2.85,1.63,13.45,13.45,0,0,1-3.13,1,19,19,0,0,1-3.69.33,16.17,16.17,0,0,1-4.93-.71,10.23,10.23,0,0,1-3.77-2.09,9.26,9.26,0,0,1-2.39-3.43,12.45,12.45,0,0,1-.84-4.74,9.91,9.91,0,0,1,1.07-4.34,10.62,10.62,0,0,1,3.71-4,23.47,23.47,0,0,1,7.11-3,43.38,43.38,0,0,1,11.28-1.23v-1.7q0-3.51-1.44-5.07A5.24,5.24,0,0,0,458,216a11,11,0,0,0-3.44.46,15.18,15.18,0,0,0-2.39,1c-.7.38-1.38.72-2,1a5.76,5.76,0,0,1-2.37.46,3.58,3.58,0,0,1-2.09-.6,4.45,4.45,0,0,1-1.36-1.47l-2.14-3.71a24.21,24.21,0,0,1,8-4.72,27.93,27.93,0,0,1,9.38-1.55,17.08,17.08,0,0,1,6.48,1.17,14,14,0,0,1,4.9,3.25,14.27,14.27,0,0,1,3.07,4.95,17.64,17.64,0,0,1,1.08,6.27V247.4ZM456,240.17a9.52,9.52,0,0,0,4-.8,12.21,12.21,0,0,0,3.48-2.6v-5.43a30.36,30.36,0,0,0-5.85.46,14.22,14.22,0,0,0-3.63,1.16,4.4,4.4,0,0,0-1.86,1.58,3.79,3.79,0,0,0-.51,1.93,3.35,3.35,0,0,0,1.1,2.87A5.34,5.34,0,0,0,456,240.17Z" transform="translate(-118.72 -88.21)" fill="#231f20"/><path d="M511.32,247.4a3.25,3.25,0,0,1-1.85-.5,2.68,2.68,0,0,1-1.06-1.49l-.91-3a23.21,23.21,0,0,1-2.49,2.29,15.71,15.71,0,0,1-2.81,1.78,14.89,14.89,0,0,1-3.25,1.15,16.55,16.55,0,0,1-3.76.4,12.19,12.19,0,0,1-5.74-1.38,13.1,13.1,0,0,1-4.55-4,20.34,20.34,0,0,1-3-6.37,30.76,30.76,0,0,1-1.09-8.58,26.9,26.9,0,0,1,1.22-8.24,20.31,20.31,0,0,1,3.46-6.58,16,16,0,0,1,5.38-4.34,15.3,15.3,0,0,1,6.92-1.57,13.31,13.31,0,0,1,5.18.9,15.34,15.34,0,0,1,3.84,2.35V190.16h11.85V247.4Zm-12-8.49a10.11,10.11,0,0,0,2.36-.25,7.92,7.92,0,0,0,1.93-.71,8.18,8.18,0,0,0,1.66-1.14,15,15,0,0,0,1.55-1.61V218.38a7.82,7.82,0,0,0-2.93-2.09,9.16,9.16,0,0,0-3.27-.59,7.06,7.06,0,0,0-3,.65,6.25,6.25,0,0,0-2.39,2.08,11.21,11.21,0,0,0-1.58,3.73,23.29,23.29,0,0,0-.58,5.55,26,26,0,0,0,.46,5.27,11.15,11.15,0,0,0,1.28,3.46,5.09,5.09,0,0,0,2,1.9A5.69,5.69,0,0,0,499.31,238.91Z" transform="translate(-118.72 -88.21)" fill="#231f20"/><path d="M544.81,207.14a20.32,20.32,0,0,1,7.21,1.22,15.68,15.68,0,0,1,5.62,3.56,16.19,16.19,0,0,1,3.67,5.71,21,21,0,0,1,1.32,7.67,16,16,0,0,1-.12,2.18,3.31,3.31,0,0,1-.42,1.34,1.52,1.52,0,0,1-.82.68,3.76,3.76,0,0,1-1.32.19H537.09q.57,5,3,7.21a9,9,0,0,0,6.31,2.24,11.3,11.3,0,0,0,3.55-.5,17.46,17.46,0,0,0,2.66-1.11l2.14-1.11a4.45,4.45,0,0,1,2.05-.49,2.45,2.45,0,0,1,2.14,1l3.44,4.24a17.3,17.3,0,0,1-4,3.43,20.85,20.85,0,0,1-4.36,2.06,23.27,23.27,0,0,1-4.47,1,33.76,33.76,0,0,1-4.26.29,22.13,22.13,0,0,1-7.82-1.36,18,18,0,0,1-6.39-4,19.15,19.15,0,0,1-4.32-6.65,24.88,24.88,0,0,1-1.58-9.26,21,21,0,0,1,1.35-7.53,18.33,18.33,0,0,1,10.06-10.48A20.4,20.4,0,0,1,544.81,207.14Zm.23,8.18a7.11,7.11,0,0,0-5.31,1.93,10,10,0,0,0-2.53,5.56H552a10.53,10.53,0,0,0-.36-2.75,6.79,6.79,0,0,0-1.19-2.39,6,6,0,0,0-2.16-1.7A7.41,7.41,0,0,0,545,215.32Z" transform="translate(-118.72 -88.21)" fill="#231f20"/><path d="M235.69,162.23s24.31-160.92,60,0" transform="translate(-118.72 -88.21)" fill="none" stroke="#231f20" stroke-miterlimit="10" stroke-width="5"/><circle cx="116.97" cy="75.83" r="4.65" stroke="#231f20" stroke-miterlimit="10" stroke-width="5"/><circle cx="177.9" cy="75.83" r="4.65" stroke="#231f20" stroke-miterlimit="10" stroke-width="5"/></svg>